<svg xmlns="http://www.w3.org/2000/svg" width="20.121" height="17.55" viewBox="0 0 20.121 17.55">
  <g id="kwsite-08" transform="translate(-42.95 -57.667)">
    <path id="Path_45" data-name="Path 45" d="M145.022,157.975l-1.459.308c-.681.143-1.364.286-2.047.433l-1.124.238-1.724.364-1.714.362-.06.012.35.143q-.37-.649-.747-1.3c-.017.126-.033.25-.048.377L137,158.3l1.325-1.476,1.6-1.784,1.387-1.542c.224-.248.466-.488.675-.749,0,0,.006-.006.01-.01l-.489-.056q.562.972,1.122,1.944.894,1.548,1.788,3.094.2.357.412.714a.31.31,0,1,0,.536-.313q-.562-.971-1.122-1.943-.894-1.549-1.788-3.094c-.137-.238-.273-.476-.412-.714a.314.314,0,0,0-.489-.062l-.552.613-1.325,1.476-1.6,1.784-1.387,1.542c-.223.25-.455.495-.674.749,0,0-.006.006-.01.01a.319.319,0,0,0-.048.377c.25.433.5.865.749,1.3a.318.318,0,0,0,.35.143l1.714-.362,1.492-.317,1.285-.273c.629-.132,1.259-.267,1.89-.4.571-.12,1.142-.226,1.709-.362l.029-.006a.312.312,0,0,0-.159-.6Z" transform="translate(-88.499 -89.972)" fill="#fff"/>
    <path id="Path_46" data-name="Path 46" d="M132.28,274.559q-.553-.96-1.107-1.917c-.052-.091-.1-.18-.157-.271a.31.31,0,1,0-.536.312l1.1,1.917c.052.091.1.18.158.271a.31.31,0,1,0,.536-.312Z" transform="translate(-83.27 -204.251)" fill="#fff"/>
    <path id="Path_47" data-name="Path 47" d="M247.144,143.17l.381.66.915,1.585q.553.96,1.107,1.919l.958,1.66c.155.269.3.544.466.809l.006.012a.31.31,0,1,0,.536-.313l-.381-.66-.915-1.585q-.551-.962-1.105-1.921l-.958-1.66c-.155-.269-.3-.544-.466-.809l-.006-.013a.312.312,0,0,0-.538.315Z" transform="translate(-194.385 -80.909)" fill="#fff"/>
    <path id="Path_48" data-name="Path 48" d="M316.719,181.356l1.306-.753a.31.31,0,1,0-.312-.536l-1.306.754a.31.31,0,1,0,.313.536Z" transform="translate(-260.239 -116.455)" fill="#fff"/>
    <path id="Path_49" data-name="Path 49" d="M295.782,142.39l.847-1.248a.314.314,0,0,0-.112-.424.317.317,0,0,0-.425.111c-.281.416-.567.832-.846,1.248a.312.312,0,0,0,.112.425A.318.318,0,0,0,295.782,142.39Z" transform="translate(-240.197 -78.982)" fill="#fff"/>
    <path id="Path_50" data-name="Path 50" d="M331.174,227.015c.5-.035,1-.072,1.5-.108a.31.31,0,1,0,0-.621l-1.5.108a.317.317,0,0,0-.31.31A.312.312,0,0,0,331.174,227.015Z" transform="translate(-274.161 -160.516)" fill="#fff"/>
    <path id="Path_51" data-name="Path 51" d="M191.662,289.708v.639c0,.019,0,.037,0,.058,0,.048.008-.048,0,0a1.392,1.392,0,0,1-.031.137.872.872,0,0,1-.041.118c.023-.056-.017.033-.027.048-.019.035-.041.07-.064.106-.01.015-.02.029-.031.048s-.01.014.006-.009a.312.312,0,0,1-.027.031c-.029.029-.056.06-.085.087s-.087.075-.041.04a1.65,1.65,0,0,1-.209.128c-.076.041.035-.012-.014.007l-.052.019a1.2,1.2,0,0,1-.12.035c-.02,0-.118.02-.056.012a1.106,1.106,0,0,1-.143.008h-.12a1.082,1.082,0,0,1-.118-.006c-.012,0-.06-.01,0,0-.027,0-.056-.01-.083-.017a1.053,1.053,0,0,1-.108-.031l-.051-.019c-.083-.029.033.017-.015-.006a1.366,1.366,0,0,1-.211-.126c-.041-.031.048.048-.012-.01l-.05-.048c-.033-.031-.062-.064-.093-.1s.039.058-.01-.013c-.012-.019-.027-.037-.037-.056-.025-.04-.048-.079-.069-.118-.006-.012-.031-.07-.008-.014-.009-.021-.017-.044-.025-.064a1.368,1.368,0,0,1-.038-.135c0-.022-.01-.045-.012-.068.009.048,0,.008,0-.017s0-.074,0-.112c-.077.1-.151.2-.228.3l2.3-.486.327-.068a.311.311,0,0,0-.163-.6l-2.3.486-.327.069a.315.315,0,0,0-.228.3,1.585,1.585,0,0,0,1.579,1.575,1.692,1.692,0,0,0,1.1-.36,1.577,1.577,0,0,0,.565-1.089c.02-.226.006-.457.006-.683a.315.315,0,0,0-.629,0Z" transform="translate(-139.088 -220.618)" fill="#fff"/>
    <path id="Path_52" data-name="Path 52" d="M93.656,234.312c0,.2-.006.406-.021.608q-.009.143-.025.286c0,.044-.01.085-.014.129,0,.023-.006.048-.009.07.009-.066,0,.017,0,.031a8.3,8.3,0,0,1-.242,1.128c-.054.187-.114.371-.18.555-.031.083-.062.163-.1.244-.015.039-.031.077-.048.114.027-.064-.009.02-.012.027-.01.025-.023.05-.033.075a8.383,8.383,0,0,1-.524.989c-.1.158-.2.313-.308.464-.048.07-.1.139-.153.207s.037-.048-.019.023c-.01.014-.022.029-.033.043-.033.043-.069.085-.1.126a8.566,8.566,0,0,1-.762.809c-.132.124-.269.242-.408.356-.035.029-.07.058-.105.085l-.064.05c.01-.009.045-.035,0,0-.079.06-.159.12-.238.176a8.263,8.263,0,0,1-.952.581c-.161.085-.327.164-.495.238-.025.01-.048.023-.077.033h0c-.041.019-.085.035-.129.052-.1.037-.19.072-.286.108a8.678,8.678,0,0,1-1.084.31q-.283.059-.571.1c-.091.012.04,0-.017,0-.023,0-.048.006-.07.008l-.143.017c-.1.01-.2.019-.3.025a8.515,8.515,0,0,1-1.217-.006c-.1-.008-.19-.017-.286-.027l-.149-.019c-.1-.012.062.01-.035,0l-.089-.013c-.195-.029-.387-.066-.58-.109a8.123,8.123,0,0,1-1.138-.346c-.048-.017-.089-.035-.135-.052l-.08-.033c-.008,0-.054-.023-.006,0q-.143-.062-.286-.13c-.172-.08-.342-.169-.509-.263a8.684,8.684,0,0,1-.975-.637l-.027-.02a.51.51,0,0,0-.048-.035c-.037-.029-.075-.058-.11-.089-.08-.066-.159-.133-.238-.2-.14-.124-.279-.255-.412-.389s-.267-.279-.4-.428c-.058-.069-.116-.137-.172-.207-.029-.037-.06-.074-.089-.112-.058-.072.035.048-.021-.027-.016-.023-.035-.048-.051-.069a8.335,8.335,0,0,1-.627-.976c-.091-.168-.178-.337-.259-.511-.02-.043-.039-.087-.06-.13-.012-.027-.022-.052-.035-.079,0-.008-.022-.056,0-.006-.041-.1-.079-.2-.116-.294-.069-.18-.129-.364-.184-.548a.311.311,0,1,0-.6.166,8.715,8.715,0,0,0,17.05-1.867c.014-.2.02-.406.02-.609a.314.314,0,0,0-.31-.31.333.333,0,0,0-.306.321Z" transform="translate(-32.565 -167.856)" fill="#fff" stroke="#fff" stroke-width="0.1"/>
    <path id="Path_53" data-name="Path 53" d="M70.647,66.456c0-.2.006-.406.02-.608.007-.1.015-.19.025-.286,0-.043.01-.085.014-.129,0-.023.006-.048.009-.07-.009.067,0-.016,0-.031a8.3,8.3,0,0,1,.242-1.126c.054-.186.114-.37.18-.555.031-.083.062-.164.1-.244.014-.04.031-.077.048-.114-.027.064.008-.021.012-.027.01-.025.023-.048.033-.074a8.285,8.285,0,0,1,.524-.99c.1-.157.2-.312.308-.464.05-.07.1-.139.153-.207s-.037.048.019-.023l.033-.044c.033-.043.068-.085.1-.126a8.495,8.495,0,0,1,.762-.809c.132-.124.269-.242.407-.356.035-.029.07-.058.106-.085s.043-.033.064-.048h0c.079-.06.159-.12.238-.176A8.29,8.29,0,0,1,75,59.285c.161-.085.327-.163.495-.238.025-.01.048-.023.077-.033h0c.041-.019.085-.035.129-.051.093-.038.188-.072.283-.108a8.552,8.552,0,0,1,1.093-.313q.282-.059.571-.1c.091-.012-.04,0,.016,0l.07-.009.143-.016c.1-.01.2-.019.3-.025a8.548,8.548,0,0,1,1.215.006c.1.006.19.017.286.027l.147.019c.1.012-.062-.01.035,0l.087.012c.194.029.387.066.577.109a8.124,8.124,0,0,1,1.138.346c.048.017.089.035.135.052.027.01.054.021.08.033.009,0,.054.022.006,0,.1.041.19.085.286.129.172.08.341.168.507.26a8.409,8.409,0,0,1,.975.635s.079.06.027.021a.517.517,0,0,0,.048.035c.037.029.075.058.11.089.08.066.159.132.238.2.14.124.279.255.412.387s.267.279.4.425c.058.068.116.137.172.207.029.037.058.074.089.109.058.072-.035-.048.021.027.016.023.035.048.051.069a8.415,8.415,0,0,1,.631.979q.137.251.259.509c.02.043.039.087.06.13l.035.079c0,.009.023.054,0,0,.041.1.081.195.116.294.068.18.128.365.184.549a.311.311,0,1,0,.6-.166A8.716,8.716,0,0,0,70.05,65.848c-.014.2-.02.406-.02.608a.309.309,0,1,0,.617,0Z" transform="translate(-25.743)" fill="#fff" stroke="#fff" stroke-width="0.1"/>
    <path id="Path_54" data-name="Path 54" d="M45.661,207.181,44.539,208.3l-.163.162h.439l-1.122-1.12-.163-.165a.31.31,0,1,0-.439.439l1.122,1.121.164.164a.316.316,0,0,0,.439,0l1.121-1.122.164-.163a.31.31,0,1,0-.439-.439Z" transform="translate(0 -142.233)" fill="#fff" stroke="#fff" stroke-width="0.1"/>
    <path id="Path_55" data-name="Path 55" d="M399.19,235.593l-1.121-1.121-.164-.164a.316.316,0,0,0-.439,0l-1.121,1.122-.164.163a.31.31,0,1,0,.439.439l1.122-1.122.163-.164h-.439l1.122,1.122.163.163a.31.31,0,1,0,.439-.439Z" transform="translate(-336.282 -168.071)" fill="#fff" stroke="#fff" stroke-width="0.1"/>
  </g>
</svg>
