<svg xmlns="http://www.w3.org/2000/svg" width="18.002" height="18.514" viewBox="0 0 18.002 18.514">
  <g id="dashboard_icons-03" data-name="dashboard icons-03" transform="translate(-50.28 -23.5)">
    <path id="Path_86" data-name="Path 86" d="M65.81,31.967h0V27.3a2.031,2.031,0,0,0-2.018-2.026H63.54v-.319a1.434,1.434,0,0,0-2.867,0v.319H55.417v-.319a1.453,1.453,0,0,0-2.907,0v.319h-.217A2.028,2.028,0,0,0,50.28,27.3v10.72a2.028,2.028,0,0,0,2.013,2.026h6.315a5.471,5.471,0,1,0,7.2-8.078Zm-4.34-7.012a.628.628,0,0,1,.617-.64H62.1a.634.634,0,0,1,.641.627v1.563H61.47Zm-8.163,0a.646.646,0,0,1,.653-.64h0a.65.65,0,0,1,.659.639v1.551H53.3ZM51.076,27.3a1.23,1.23,0,0,1,1.217-1.23h.217v.853a.389.389,0,0,0,.4.382h2.094a.393.393,0,0,0,.408-.382v-.853h5.256v.853a.371.371,0,0,0,.36.382h2.119a.377.377,0,0,0,.389-.364v-.87h.251a1.234,1.234,0,0,1,1.222,1.23v1.279H51.076Zm1.217,11.95a1.229,1.229,0,0,1-1.217-1.23V29.373H65.014v2.16a5.476,5.476,0,0,0-6.957,7.715ZM62.812,41.21a4.671,4.671,0,1,1,4.67-4.67h0A4.676,4.676,0,0,1,62.812,41.21Z" fill="#fff"/>
    <path id="Path_87" data-name="Path 87" d="M350.821,283.634h-1.745v-2.4a.4.4,0,1,0-.8,0v2.794a.405.405,0,0,0,.406.4h2.135a.4.4,0,1,0,0-.8Z" transform="translate(-286.134 -247.093)" fill="#fff"/>
  </g>
</svg>
