<svg xmlns="http://www.w3.org/2000/svg" width="20" height="19.208" viewBox="0 0 20 19.208">
  <g id="Group_79" data-name="Group 79" transform="translate(-1038.999 -637)">
    <path id="Path_56" data-name="Path 56" d="M100.785,229.256c-.079.216-.165.429-.259.638q-.066.148-.138.294c-.021.045-.044.086-.065.131-.011.023-.026.048-.036.072.035-.067-.009.017-.017.031a9.449,9.449,0,0,1-.692,1.1c-.129.176-.266.349-.405.518l-.193.222c-.03.036-.062.069-.094.1.053-.057-.017.019-.023.024l-.064.066a9.4,9.4,0,0,1-.936.844c-.164.128-.333.253-.5.37-.08.054-.16.108-.242.159s.058-.036-.028.017l-.053.033c-.053.033-.107.063-.156.094a9.489,9.489,0,0,1-1.115.558c-.187.079-.377.151-.567.216-.048.017-.1.033-.144.048l-.086.028c.014,0,.061-.019,0,0-.107.033-.213.065-.32.092a9.076,9.076,0,0,1-1.225.241c-.2.026-.406.044-.611.057-.03,0-.061,0-.093,0h0c-.051,0-.1,0-.155,0-.112,0-.226,0-.339,0a9.508,9.508,0,0,1-1.258-.1q-.32-.049-.639-.121c-.1-.023.043.011-.018,0-.025-.006-.053-.012-.077-.019-.053-.012-.1-.027-.156-.039-.107-.029-.218-.06-.324-.093a9.484,9.484,0,0,1-1.273-.486c-.1-.047-.191-.092-.287-.141l-.149-.079c-.1-.051.061.036-.035-.018l-.088-.048c-.193-.108-.38-.224-.565-.346a9.056,9.056,0,0,1-1.058-.818c-.042-.036-.079-.072-.121-.108-.024-.022-.047-.046-.071-.067-.007-.008-.048-.045-.006,0-.086-.083-.169-.167-.251-.253-.149-.154-.291-.316-.431-.481a9.855,9.855,0,0,1-.773-1.064c0-.006-.059-.095-.02-.032-.011-.019-.022-.036-.034-.054-.028-.045-.053-.091-.08-.138-.059-.1-.115-.2-.171-.307-.1-.188-.193-.382-.28-.577s-.17-.4-.248-.609c-.034-.1-.068-.191-.1-.288-.016-.051-.034-.1-.05-.154-.032-.1.018.065-.011-.037-.009-.031-.019-.062-.028-.093a9.637,9.637,0,0,1-.276-1.292c-.03-.216-.053-.429-.071-.648,0-.054-.007-.108-.012-.162,0-.033,0-.064-.006-.1v-.008c-.005-.119-.005-.24-.006-.358,0-.219.008-.438.021-.656a.355.355,0,0,0-.138-.339.345.345,0,0,0-.36-.032.353.353,0,0,0-.194.309,9.869,9.869,0,0,0,7.335,10.259,9.715,9.715,0,0,0,11.269-5.486c.091-.207.176-.423.256-.639a.358.358,0,0,0-.2-.453.372.372,0,0,0-.447.22Z" transform="translate(956.684 420.291)" fill="#fff"/>
    <path id="Path_57" data-name="Path 57" d="M393.167,301.581l-.746-1.636-.108-.239a.359.359,0,0,0-.466-.174l-1.639.747-.239.108a.352.352,0,0,0,.293.641l1.636-.747.239-.108-.466-.174.747,1.635.108.239a.352.352,0,0,0,.641-.293Z" transform="translate(665.8 349.818)" fill="#fff"/>
    <path id="Path_58" data-name="Path 58" d="M154.34,145.39a.211.211,0,0,0,0-.063l-.827-2.652a.91.91,0,0,0-.572-.62,6.251,6.251,0,0,0-2.647-.331c0-.054.021-.112.027-.171a1.974,1.974,0,0,0,.541.076,2.089,2.089,0,1,0-2-2.591,2.367,2.367,0,0,0-1.858,0,2.06,2.06,0,0,0-2.342-1.546,2.1,2.1,0,0,0,.352,4.171,2.039,2.039,0,0,0,.547-.078.983.983,0,0,0,.025.173,6.251,6.251,0,0,0-2.382.247c-.091.028-.182.051-.271.082a.906.906,0,0,0-.57.615l-.826,2.656a.228.228,0,0,0-.011.065c0,.378.389.651,1.186.832a9.763,9.763,0,0,0,1.665.2l-.529,1.7a.253.253,0,0,0,0,.063c0,.422.448.739,1.376.948a12.825,12.825,0,0,0,2.708.253c.684,0,4.091-.057,4.091-1.2a.16.16,0,0,0,0-.054h0l-.539-1.736a7.072,7.072,0,0,0,2.32-.4C154.133,145.868,154.34,145.666,154.34,145.39Zm-3.486-7.521a1.64,1.64,0,0,1,1.518,1,1.7,1.7,0,0,1-.3,1.815,1.619,1.619,0,0,1-1.754.436,2.45,2.45,0,0,0-1.077-1.866A1.65,1.65,0,0,1,150.854,137.869Zm-4,1.727a1.97,1.97,0,0,1,2.157,0,2.429,2.429,0,0,1,.221.171,1.966,1.966,0,0,1,.672,1.382v.242a2.04,2.04,0,0,1-.056.388,2.178,2.178,0,0,1-.176.463,2,2,0,0,1-.529.632,1.921,1.921,0,0,1-.688.348,1.637,1.637,0,0,1-.231.051,1.555,1.555,0,0,1-.223.021h-.151a1.926,1.926,0,0,1-.223-.023,2.13,2.13,0,0,1-.233-.049,1.993,1.993,0,0,1-1.181-.943,2.067,2.067,0,0,1-.116-.242,2.166,2.166,0,0,1-.136-.615v-.238a2,2,0,0,1,.029-.276.659.659,0,0,1,.031-.139,2.033,2.033,0,0,1,.62-1.007,1.8,1.8,0,0,1,.215-.162Zm-1.308,1.552a1.609,1.609,0,0,1-1.486-.216,1.678,1.678,0,0,1-.687-1.361,1.66,1.66,0,0,1,.087-.531,1.629,1.629,0,0,1,3.159.216,2.445,2.445,0,0,0-.961,1.274,2.4,2.4,0,0,0-.112.621Zm2.062,2.752a7.258,7.258,0,0,0-1.407.21,7.07,7.07,0,0,0-.71.211,1.045,1.045,0,0,0-.658.686l-.318,1.032a9.206,9.206,0,0,1-.964-.078l-.434-.063c-.741-.125-1.132-.316-1.173-.453l.825-2.622a.5.5,0,0,1,.31-.337c.192-.067.386-.12.582-.168a5.878,5.878,0,0,1,2.064-.118,2.407,2.407,0,0,0,1.822,1.492m4.058,4.548c-.038.21-.541.443-1.475.6l-.43.076a16.148,16.148,0,0,1-3.537,0l-.44-.061c-.934-.154-1.447-.4-1.475-.594l.552-1.778.066-.21.064-.211.3-.935a.627.627,0,0,1,.391-.421,6.767,6.767,0,0,1,1.048-.281c.08-.015.163-.029.246-.04h.013a7.327,7.327,0,0,1,.77-.074h.469a5,5,0,0,1,.663.054,1.039,1.039,0,0,1,.206.032,6.7,6.7,0,0,1,1.217.305.627.627,0,0,1,.393.421l.275.879.064.21.066.211.413,1.346Zm-3.3-4.565a2.4,2.4,0,0,0,1.853-1.5,5.805,5.805,0,0,1,2.634.288.5.5,0,0,1,.312.344l.816,2.61c-.029.091-.206.208-.56.314v-.015a4.874,4.874,0,0,1-.62.144l-.423.071c-.285.036-.62.061-.971.072l-.318-.984a1.043,1.043,0,0,0-.655-.708,7.288,7.288,0,0,0-2.128-.422" transform="translate(900.889 503.129)" fill="#fff" stroke="#fff" stroke-width="0.2"/>
    <path id="Path_59" data-name="Path 59" d="M94,77.7c.084-.216.174-.425.273-.632q.069-.147.144-.291c.022-.044.046-.085.068-.129.011-.023.026-.048.037-.071-.036.066.009-.017.018-.031a9.369,9.369,0,0,1,.717-1.085c.133-.174.272-.343.416-.509.067-.074.132-.146.2-.216.031-.035.064-.067.1-.1-.053.054.017-.018.024-.023.021-.022.044-.043.066-.065a9.441,9.441,0,0,1,.953-.823c.166-.125.338-.245.512-.359.081-.054.163-.1.245-.154s-.059.035.029-.016c.017-.011.036-.021.053-.032.053-.032.107-.061.16-.091a9.525,9.525,0,0,1,1.126-.534c.186-.078.377-.147.569-.207.048-.016.1-.032.144-.045l.087-.025c-.014,0-.062.018,0,0,.107-.03.213-.059.322-.085a9.185,9.185,0,0,1,1.23-.216c.2-.022.407-.035.612-.044a.9.9,0,0,1,.094,0h.154c.112,0,.226,0,.339.005a9.489,9.489,0,0,1,1.255.13q.32.054.635.134c.1.025-.043-.012.018,0,.024.008.053.013.077.021.053.013.1.029.155.042.107.031.217.065.32.1a9.376,9.376,0,0,1,1.264.513c.1.046.189.1.284.147l.145.081c.1.054-.06-.037.035.019l.085.05c.19.112.373.232.555.357a9.136,9.136,0,0,1,1.041.841c.04.037.078.074.118.111.024.022.047.044.07.069.007.008.047.046.006,0,.084.084.165.17.246.256.145.157.285.32.419.486a9.508,9.508,0,0,1,.751,1.079c0,.006.057.1.019.033.01.019.021.036.033.054.027.046.053.092.077.139.056.1.111.207.165.311.095.19.185.385.266.58s.162.406.236.613c.032.1.064.193.093.29.014.054.029.1.047.153a.167.167,0,0,1,.011.037c.007.031.018.063.026.093a9.726,9.726,0,0,1,.251,1.3c.026.216.046.432.059.648,0,.054,0,.108.009.162a.753.753,0,0,0,0,.1v0c0,.12,0,.239,0,.358,0,.219-.018.438-.035.655a.348.348,0,1,0,.692.077,9.92,9.92,0,0,0-4.679-9.337,9.641,9.641,0,0,0-10.332.169,9.789,9.789,0,0,0-3.484,4c-.1.207-.19.418-.273.632a.358.358,0,0,0,.194.457A.353.353,0,0,0,94,77.7Z" transform="translate(946.487 565.786)" fill="#fff"/>
    <path id="Path_60" data-name="Path 60" d="M81.1,148.412l-1.651.714-.241.1.462.183-.712-1.651-.1-.241a.352.352,0,0,0-.648.278l.712,1.651.1.241a.359.359,0,0,0,.463.184l1.652-.714.241-.1a.352.352,0,1,0-.278-.648Z" transform="translate(960.822 493.8)" fill="#fff"/>
  </g>
</svg>
