<svg xmlns="http://www.w3.org/2000/svg" width="67.583" height="66.05" viewBox="0 0 67.583 66.05"><g transform="translate(-44.37 -51.08)"><path d="M88.75,80.47a5.069,5.069,0,0,0,5.12-5.12,4.881,4.881,0,0,0-.922-2.969l7.885-8.5a4.959,4.959,0,0,0,2.662.715,6.1,6.1,0,0,0,2.663-.715l7.882,8.5a5.333,5.333,0,0,0-.921,2.969,5.069,5.069,0,0,0,5.12,5.12,5.157,5.157,0,0,0,3.9-8.5l8.5-11.16a5.6,5.6,0,0,0,2.253.509,5.12,5.12,0,1,0-5.12-5.12A5.445,5.445,0,0,0,129,59.579l-8.6,11.16a5.552,5.552,0,0,0-4.916.205l-7.883-8.5a4.871,4.871,0,0,0,.922-2.97,5.12,5.12,0,1,0-10.24,0,4.4,4.4,0,0,0,1.017,2.97l-7.885,8.5a4.727,4.727,0,0,0-2.662-.717,5.12,5.12,0,1,0,0,10.24Z" transform="translate(-32.604 0)" fill="#2fadd0"/><rect width="9.318" height="35.021" transform="translate(95.466 71.87)" fill="#2c40ce"/><rect width="9.318" height="21.709" transform="translate(80.823 85.182)" fill="#2c40ce"/><rect width="9.318" height="21.709" transform="translate(51.538 85.182)" fill="#2c40ce"/><rect width="9.318" height="35.021" transform="translate(66.18 71.87)" fill="#2c40ce"/><rect width="67.583" height="8.192" transform="translate(44.37 108.938)" fill="#ff687a"/></g></svg>