<svg xmlns="http://www.w3.org/2000/svg" width="48.082" height="49.867" viewBox="0 0 48.082 49.867"><g transform="translate(-235.852 -1831.92)"><g transform="translate(264.242 1838.529)"><path d="M64.521-511.913c-5.106.307-8.575,1.945-7.715,3.641.62,1.215,3.175,2.152,6.922,2.536a34.723,34.723,0,0,0,5.241-.024c4.189-.452,6.85-1.633,6.85-3.036C75.819-510.765,70.382-512.264,64.521-511.913Z" transform="translate(-56.403 511.964)" fill="#2c40ce"/><path d="M51.251-422.146c-.115.283-.115.317-.13,2.056-.014,1.97,0,2.046.3,2.608a6.009,6.009,0,0,0,3.1,2.152,21.18,21.18,0,0,0,10.924.552c2.954-.653,4.871-1.835,5.284-3.271a8.943,8.943,0,0,0,.062-2.042c-.014-1.739-.014-1.773-.13-2.056s-.12-.279-.163-.168a2.761,2.761,0,0,1-1.595,1.5c-3.209,1.6-9.891,1.888-14.3.62a8.371,8.371,0,0,1-2.32-1.038,2.156,2.156,0,0,1-.874-1.081C51.371-422.424,51.362-422.415,51.251-422.146Z" transform="translate(-51.112 426.683)" fill="#2c40ce"/><path d="M51.216-298.956c-.192.375-.216.639-.216,2.359,0,.966.024,1.749.053,1.874.37,1.619,2.935,3.026,6.466,3.55a16.567,16.567,0,0,0,3.353.221,18.059,18.059,0,0,0,4.866-.528c2.8-.692,4.592-1.878,4.9-3.247a37.015,37.015,0,0,0,0-3.723,2.938,2.938,0,0,0-.144-.423l-.1-.226-.231.3c-1,1.307-3.564,2.349-6.711,2.724-5.006.6-10.371-.629-11.957-2.738l-.216-.288Z" transform="translate(-51 309.325)" fill="#2c40ce"/><path d="M51.305-170.279c-.187.418-.2.634-.187,2.45a6.244,6.244,0,0,0,.11,1.965c.735,1.739,3.464,2.993,7.47,3.444a29.522,29.522,0,0,0,4.516,0c4.011-.447,6.807-1.744,7.475-3.468A7.05,7.05,0,0,0,70.78-168c0-1.849,0-1.878-.11-2.147a1.5,1.5,0,0,0-.149-.3c-.024-.01-.1.058-.159.159a4.249,4.249,0,0,1-.418.476c-1.845,1.825-6.692,2.858-11.222,2.392-3.531-.365-6.221-1.46-7.239-2.959l-.077-.115Z" transform="translate(-51.108 186.903)" fill="#2c40ce"/></g><path d="M66.262,49.812c-.1.048-1.529,1.427-3.17,3.068-2.824,2.833-2.992,3.024-3.04,3.4l-.052.4,3.133,3.133c2.8,2.805,3.17,3.133,3.433,3.133.873,0,1.061-.384,1.061-2.148V59.484l3.057-.028,3.059-.029.226-.262a.968.968,0,0,0,0-1.257l-.226-.263H66.2l-.226.263c-.2.233-.224.356-.224,1.078V59.8l-1.736-1.733-1.735-1.735,1.661-1.661c.919-.92,1.7-1.67,1.735-1.67a1.841,1.841,0,0,1,.076.713c0,.657.019.731.271.985l.272.272h7.354l.272-.272a1.015,1.015,0,0,0,.179-1.144c-.233-.431-.465-.465-3.556-.465H67.632L67.6,51.674l-.028-1.416-.311-.266A.878.878,0,0,0,66.262,49.812Z" transform="translate(175.852 1782.193)" fill="#2c40ce"/><path d="M351.13,349.092c-.394.187-.5.609-.5,2.035v1.323h-6.942l-.291.262a.911.911,0,0,0,0,1.351l.3.272,4.175-.028,4.187-.029.226-.262c.2-.233.224-.357.224-1.079v-.814l1.736,1.736,1.735,1.735-1.661,1.661c-.919.919-1.7,1.669-1.735,1.669a1.84,1.84,0,0,1-.076-.713c0-.656-.019-.732-.272-.985l-.271-.272h-3.954c-4.288,0-4.344.009-4.578.516a.807.807,0,0,0,.207,1.041l.319.32h6.669l.016,1.414.028,1.417.321.281a.664.664,0,0,0,.7.233c.349-.046.609-.281,3.414-3.1,2.879-2.87,3.048-3.057,3.1-3.433l.056-.4-3.133-3.133c-2.946-2.946-3.152-3.133-3.462-3.124A1.44,1.44,0,0,0,351.13,349.092Z" transform="translate(-74.326 1519.592)" fill="#2c40ce"/><g transform="translate(235.852 1847.695)"><path d="M67.562-511.893c-7.086.427-11.9,2.7-10.7,5.052.86,1.686,4.406,2.986,9.605,3.519a48.178,48.178,0,0,0,7.272-.033c5.812-.627,9.505-2.266,9.505-4.213C83.239-510.3,75.694-512.38,67.562-511.893Z" transform="translate(-56.297 511.964)" fill="#2c40ce"/><path d="M51.3-422.055c-.16.393-.16.44-.18,2.853-.02,2.733-.007,2.84.42,3.619a8.338,8.338,0,0,0,4.306,2.986,29.389,29.389,0,0,0,15.158.767c4.1-.907,6.759-2.546,7.332-4.539a12.41,12.41,0,0,0,.087-2.833c-.02-2.413-.02-2.46-.18-2.853-.153-.373-.167-.387-.227-.233a3.832,3.832,0,0,1-2.213,2.08c-4.453,2.22-13.725,2.62-19.844.86a11.613,11.613,0,0,1-3.219-1.44,2.991,2.991,0,0,1-1.213-1.5C51.47-422.441,51.456-422.428,51.3-422.055Z" transform="translate(-51.11 428.351)" fill="#2c40ce"/><path d="M51.3-298.9c-.267.52-.3.887-.3,3.273,0,1.34.033,2.426.073,2.6.513,2.246,4.073,4.2,8.972,4.926a22.988,22.988,0,0,0,4.653.307,25.055,25.055,0,0,0,6.752-.733c3.879-.96,6.372-2.606,6.806-4.506a51.363,51.363,0,0,0,.007-5.166,4.081,4.081,0,0,0-.2-.587l-.133-.313-.32.42c-1.386,1.813-4.946,3.259-9.312,3.779-6.946.833-14.391-.873-16.591-3.8l-.3-.4Z" transform="translate(-51 313.289)" fill="#2c40ce"/><path d="M51.379-170.193c-.26.58-.28.88-.26,3.4.02,2.206.033,2.453.153,2.726,1.02,2.413,4.806,4.153,10.365,4.779a40.965,40.965,0,0,0,6.266,0c5.566-.62,9.445-2.42,10.372-4.813.12-.307.127-.52.127-2.933,0-2.566,0-2.606-.153-2.98a2.086,2.086,0,0,0-.207-.42c-.033-.013-.133.08-.22.22a5.9,5.9,0,0,1-.58.66c-2.56,2.533-9.285,3.966-15.571,3.319-4.9-.507-8.632-2.026-10.045-4.106l-.107-.16Z" transform="translate(-51.106 193.261)" fill="#2c40ce"/></g></g></svg>