<svg xmlns="http://www.w3.org/2000/svg" xmlns:xlink="http://www.w3.org/1999/xlink" width="78.817" height="52.612" viewBox="0 0 78.817 52.612">
  <defs>
    <clipPath id="clip-path">
      <path id="Path_330" data-name="Path 330" d="M182.57,130.546l18.251-10.606,10.6,6.122-18.251,10.6Z" transform="translate(-182.57 -119.94)" fill="none"/>
    </clipPath>
  </defs>
  <g id="flow_icons-18" data-name="flow icons-18" transform="translate(0 -67.756)">
    <path id="Path_327" data-name="Path 327" d="M78.817,98.234c0,.545-.859.951-.859.951l-41.1,20.91a2.594,2.594,0,0,1-2.317,0L5.9,105.755C2.454,104.034,0,99.434,0,94.858c0-.232,0-.462.018-.694.163-2.94,1.4-5.286,3.387-6.442,1.4-.813,31.157-14.84,40.609-19.3a5.625,5.625,0,0,1,5.314-.017c5.531,2.762,21.878,9.912,28.633,13,0,0,.73.272.73.817s-.731.785-.731.785l-40.4,20.034c-1.847.833-2.3.634-3.345.172C33.317,102.82,7.809,90,7.809,90c-2.662-1.33-4.986.6-5.191,4.3s1.786,7.791,4.446,9.126L34.53,117.171a3.106,3.106,0,0,0,2.9-.263L76.154,97.723l1.649-.77S78.817,97.716,78.817,98.234Z" fill="#2c40ce"/>
    <path id="Path_328" data-name="Path 328" d="M91.868,164.394l-.24,13.632L51.97,198.039a3.408,3.408,0,0,1-1.81.665,3.307,3.307,0,0,1-1.182-.154L21.362,184.619c-2.66-1.335-4.652-5.417-4.444-9.126s2.529-5.631,5.191-4.3c0,0,25.508,12.819,26.407,13.217a3.8,3.8,0,0,0,1.212.393,3.583,3.583,0,0,0,2.134-.565c1.316-.784,16.779-8.444,40.007-19.843" transform="translate(-14.301 -81.274)" fill="#fff" stroke="#afafaf" stroke-linecap="round" stroke-width="1"/>
    <g id="Group_151" data-name="Group 151" transform="translate(28.105 75.789)">
      <g id="Group_150" data-name="Group 150" clip-path="url(#clip-path)">
        <path id="Path_329" data-name="Path 329" d="M216.007,146.887l4.156-2.155a2.189,2.189,0,0,1,.363,1.232q-.032.567-.908,1.018a3.453,3.453,0,0,1-1.741.376,4.641,4.641,0,0,1-1.87-.473m6.105-4.686a1.694,1.694,0,0,1-.268-1.028c.037-.308.288-.583.754-.824a3.27,3.27,0,0,1,1.564-.365,4,4,0,0,1,1.581.337l-3.631,1.88m7.786-4.03-1.772.916a9.925,9.925,0,0,0-4.229-1.2,7.706,7.706,0,0,0-4.127.854q-1.6.827-1.726,1.866a3.483,3.483,0,0,0,.847,2.384c.088.106.171.212.251.308s.154.2.232.308L214.757,146a1.23,1.23,0,0,1-.308-1.245,2.16,2.16,0,0,1,1.051-1.1l-2.648-1.715q-2.063,1.111-2.111,2.532a3.542,3.542,0,0,0,1.612,2.771l-1.684.871,1.313.864,1.663-.862.015.009a9.63,9.63,0,0,0,3.1,1.161,10.127,10.127,0,0,0,3.1.109,7.785,7.785,0,0,0,2.617-.77,3.594,3.594,0,0,0,1.709-1.479,1.98,1.98,0,0,0,.037-1.6,7.612,7.612,0,0,0-.945-1.683c-.062-.091-.126-.179-.194-.265s-.132-.176-.194-.266l4.069-2.106a.993.993,0,0,1,.2,1.007,1.672,1.672,0,0,1-.807.841l2.689,1.733a3.016,3.016,0,0,0,1.86-2.3,3.13,3.13,0,0,0-1.487-2.555l1.793-.924-1.315-.85" transform="translate(-206.344 -135.107)" fill="#fff"/>
      </g>
    </g>
  </g>
</svg>
