<svg id="envelope" xmlns="http://www.w3.org/2000/svg" width="48.062" height="36.054" viewBox="0 0 48.062 36.054">
  <path id="Path_74" data-name="Path 74" d="M3.494-69.87a3.869,3.869,0,0,0-1.708.929c-.648.6-.807,1.014-.573,1.511.056.131,2.159,1.981,4.665,4.112,6.036,5.125,13.3,11.349,15.667,13.423,1.652,1.446,1.981,1.69,2.422,1.821a1.329,1.329,0,0,0,1,0c.544-.16.526-.141,3.163-2.45,2.215-1.943,8.739-7.528,14.935-12.795,2.506-2.131,4.609-3.98,4.665-4.112.235-.5.075-.911-.573-1.511a3.923,3.923,0,0,0-1.83-.957C44.581-70.058,4.142-70.03,3.494-69.87Z" transform="translate(-0.443 70.005)" fill="#ff687a"/>
  <path id="Path_75" data-name="Path 75" d="M.441-60.054C-.019-59.782,0-60.345,0-46.612,0-38.4.037-33.63.094-33.311a4.052,4.052,0,0,0,3.182,3.192c.695.131,40.815.131,41.51,0a4.052,4.052,0,0,0,3.182-3.192c.056-.319.094-5.088.094-13.3,0-13.8.019-13.189-.46-13.452a1.432,1.432,0,0,0-1.1.038c-.31.216-12.841,10.9-15.8,13.47-1.464,1.267-3.051,2.638-3.52,3.051a4.417,4.417,0,0,1-3.708,1.38c-1.173-.188-1.5-.4-4.046-2.638C16.5-47.335,2.544-59.256,1.652-59.951A1.3,1.3,0,0,0,.441-60.054Z" transform="translate(0 66.075)" fill="#ff687a"/>
</svg>
