
   <svg xmlns="http://www.w3.org/2000/svg" width="58.542" height="29.193" viewBox="0 0 58.542 29.193">
      <g id="landing_page_illustrations-15" data-name="landing page illustrations-15" transform="translate(0)">
        <path id="Path_61" data-name="Path 61" d="M68.184,18.44a29.212,29.212,0,0,0-20.7-8.576v7.962A21.265,21.265,0,0,1,62.554,24.07Z" transform="translate(-18.211 -9.864)" fill="#b3df5f"/>
        <path id="Path_62" data-name="Path 62" d="M19.19,18.44l5.632,5.631a21.264,21.264,0,0,1,15.072-6.243V9.864A29.205,29.205,0,0,0,19.19,18.44Z" transform="translate(-10.622 -9.864)" fill="#22b78a"/>
        <path id="Path_63" data-name="Path 63" d="M19.19,18.44l5.632,5.631a21.264,21.264,0,0,1,15.072-6.243V9.864A29.205,29.205,0,0,0,19.19,18.44Z" transform="translate(-10.622 -9.864)" fill="#ffe954"/>
        <path id="Path_64" data-name="Path 64" d="M7.481,41.657A.531.531,0,0,0,8,42.2h6.92a.527.527,0,0,0,.526-.508,21.265,21.265,0,0,1,6.236-14.477l-5.632-5.63A29.207,29.207,0,0,0,7.481,41.657Z" transform="translate(-7.481 -13.008)" fill="#ff5f51"/>
        <path id="Path_65" data-name="Path 65" d="M73.71,21.583l-5.632,5.631a21.266,21.266,0,0,1,6.235,14.478.525.525,0,0,0,.526.509h6.91a.529.529,0,0,0,.527-.532v-.012A29.224,29.224,0,0,0,73.71,21.583Z" transform="translate(-23.735 -13.008)" fill="#72b5ec"/>
        <path id="Path_66" data-name="Path 66" d="M44.669,41.754h0a2.371,2.371,0,0,1-.078-3.353,2.466,2.466,0,0,1,.287-.253l11.705-8.863a.147.147,0,0,1,.191.01h0a.147.147,0,0,1,.022.2L48.234,41.418a2.371,2.371,0,0,1-3.309.545A2.461,2.461,0,0,1,44.669,41.754Z" transform="translate(-17.259 -15.065)" fill="#4c75ba"/>
        <circle id="Ellipse_22" data-name="Ellipse 22" cx="0.846" cy="0.846" r="0.846" transform="translate(28.462 23.805)" fill="#fff"/>
      </g>
    </svg>