<svg xmlns="http://www.w3.org/2000/svg" width="73.365" height="71.288" viewBox="0 0 73.365 71.288"><g transform="translate(-39.51 -28.81)"><path d="M193.794,93.788H181.374a5.816,5.816,0,0,1-5.809-5.811V75.561a2.472,2.472,0,0,0-2.469-2.469h-6.5V69.75h6.5a5.818,5.818,0,0,1,5.811,5.811V87.977a2.47,2.47,0,0,0,2.465,2.469h12.418Z" transform="translate(-105.849 -34.098)" fill="#2c40ce"/><path d="M173.1,314.225h-6.5v-3.343h6.5a2.47,2.47,0,0,0,2.469-2.467V296.008a5.816,5.816,0,0,1,5.808-5.818h12.418v3.343H181.374a2.47,2.47,0,0,0-2.465,2.475v12.418A5.816,5.816,0,0,1,173.1,314.225Z" transform="translate(-105.849 -217.696)" fill="#ff6161"/><rect width="27.194" height="3.343" transform="translate(60.751 64.422)" fill="#2fadd0"/><circle cx="8.514" cy="8.514" r="8.514" transform="translate(39.51 28.81)" fill="#2c40ce"/><rect width="17.027" height="17.027" transform="translate(39.512 57.58)" fill="#2fadd0"/><rect width="25.539" height="25.539" transform="translate(87.336 52.569)" fill="#2c40ce"/><rect width="17.027" height="10.471" transform="translate(39.512 89.627)" fill="#ff6161"/></g></svg>