<svg xmlns="http://www.w3.org/2000/svg" width="46.103" height="44.193" viewBox="0 0 46.103 44.193"><g transform="translate(0 511.921)"><path d="M43.507-511.487c-.46.243-5.461,2.848-11.111,5.8S17.3-497.8,11.4-494.726s-10.814,5.7-10.931,5.8A1.561,1.561,0,0,0,0-487.868a1.714,1.714,0,0,0,.577,1.126c.315.207,12.319,4.3,12.454,4.244.063-.027,1.793-1.478,3.839-3.226s7.66-6.551,12.463-10.651,8.84-7.552,8.966-7.66l.216-.189-.216.27c-.126.153-4.542,5.479-9.822,11.841S18.87-480.524,18.852-480.5c-.009.054,19.338,6.714,20.321,7a1.6,1.6,0,0,0,1.5-.748c.18-.351,5.5-36.181,5.425-36.559a1.52,1.52,0,0,0-.838-1C44.751-512.019,44.4-511.956,43.507-511.487Z" transform="translate(0 0)" fill="#56a9ee"/><path d="M187-131.359c0,5.055-.009,4.947.5,5.353a1.4,1.4,0,0,0,1.9-.1c.36-.387,5.371-7.2,5.317-7.245-.036-.036-7.615-2.649-7.687-2.649C187.018-136,187-133.909,187-131.359Z" transform="translate(-170.149 -342.046)" fill="#56a9ee"/></g></svg>