<svg xmlns="http://www.w3.org/2000/svg" width="76.771" height="58" viewBox="0 0 76.771 58">
  <path id="flow_icons-14" data-name="flow icons-14" d="M73.486,65.4H3.285A3.285,3.285,0,0,0,0,68.685v51.431A3.284,3.284,0,0,0,3.285,123.4h70.2a3.284,3.284,0,0,0,3.285-3.288V68.681A3.285,3.285,0,0,0,73.486,65.4ZM49.663,93.275H52.2v-.936L53.76,93.53l-1.564,1.2v-.936H49.663ZM8.955,72.317h7.709a3.92,3.92,0,1,1,0,7.839H8.955a3.92,3.92,0,1,1,0-7.839Zm6.251,12.858-2.4,3.149-2.4-3.149h1.84V81.45h1.123v3.725Zm-2.4,21.232-8.4-8.4,8.4-8.4,8.4,8.4ZM25.6,76.718v16.1H27.89V91.264l2.662,2.029L27.89,95.329V93.768H25.606v16.105H27.89V108.32l2.662,2.03-2.662,2.029v-1.553H24.741V75.761H27.89V74.208l2.662,2.029-2.662,2.03V76.712Zm21.18,37.552H31.236v-7.845H46.783Zm0-16.819H31.236V89.611H46.783ZM41.407,85.175l-2.4,3.149-2.4-3.149h1.835V81.45h1.123v3.725Zm5.376-5.019H31.236V72.317H46.783Zm18.443,29.539v1.134H48.889v-1.134h15.2v-4.042h0v-3.726H62.243l2.4-3.149,2.4,3.149H65.226Zm6.968-12.241H56.64V89.611H72.186ZM61.759,84.593l2.4-3.149,2.4,3.149h-1.84v3.725H63.594V84.593Zm6.508-4.437H60.558a3.92,3.92,0,1,1,0-7.839h7.709a3.92,3.92,0,1,1,0,7.839Z" transform="translate(0 -65.4)" fill="#ffcb06"/>
</svg>
